<?xml version="1.0" encoding="UTF-8"?>
<svg width="165px" height="165px" viewBox="0 0 165 165" version="1.1" xmlns="http://www.w3.org/2000/svg" xmlns:xlink="http://www.w3.org/1999/xlink">
    <!-- Generator: Sketch 63.1 (92452) - https://sketch.com -->
    <title>Bricks</title>
    <desc>Created with Sketch.</desc>
    <defs>
        <circle id="path-1" cx="82.5" cy="82.5" r="82.5"></circle>
    </defs>
    <g id="Page-1" stroke="none" stroke-width="1" fill="none" fill-rule="evenodd">
        <g id="Home/New" transform="translate(-440.000000, -3472.000000)">
            <g id="Bricks" transform="translate(440.000000, 3472.000000)">
                <mask id="mask-2" fill="white">
                    <use xlink:href="#path-1"></use>
                </mask>
                <use id="Mask" fill="#69AFE3" xlink:href="#path-1"></use>
                <g id="Big-Chair" opacity="0.2" mask="url(#mask-2)">
                    <g transform="translate(41.000000, 37.000000)" id="Group">
                        <g>
                            <path d="M123.272,0 C133.76541,-1.92760819e-15 142.272,8.50658975 142.272,19 L142.272602,27.2130339 C137.602053,28.4519764 134.16,32.7084112 134.16,37.7687805 L134.16,37.7687805 L134.16,86.7902439 L142.123106,86.7906794 C142.005728,86.9309643 141.829345,87.0201849 141.632123,87.0201721 L13.1198772,87.0201721 C12.9226546,87.0201849 12.7462718,86.9309643 12.6288941,86.7906794 L21.216,86.7902439 L21.216,37.7687805 C21.216,32.4859517 17.4646619,28.0792949 12.4804962,27.0673208 L12.48,19 L12.48,19 C12.48,8.50658975 20.9865898,1.92760819e-15 31.48,0 L123.272,0 Z M119.495415,61.1902439 L34.0085854,61.1902439 C33.4913236,61.1902439 33.072,61.6095675 33.072,62.1268293 C33.072,62.6440911 33.4913236,63.0634146 34.0085854,63.0634146 L34.0085854,63.0634146 L119.495415,63.0634146 C120.012676,63.0634146 120.432,62.6440911 120.432,62.1268293 C120.432,61.6095675 120.012676,61.1902439 119.495415,61.1902439 L119.495415,61.1902439 Z M119.495415,46.204878 L34.0085854,46.204878 C33.4913236,46.204878 33.072,46.6242016 33.072,47.1414634 C33.072,47.6587252 33.4913236,48.0780488 34.0085854,48.0780488 L34.0085854,48.0780488 L119.495415,48.0780488 C120.012676,48.0780488 120.432,47.6587252 120.432,47.1414634 C120.432,46.6242016 120.012676,46.204878 119.495415,46.204878 L119.495415,46.204878 Z M119.495415,30.595122 L34.0085854,30.595122 C33.4913236,30.595122 33.072,31.0144455 33.072,31.5317073 C33.072,32.0489691 33.4913236,32.4682927 34.0085854,32.4682927 L34.0085854,32.4682927 L119.495415,32.4682927 C120.012676,32.4682927 120.432,32.0489691 120.432,31.5317073 C120.432,31.0144455 120.012676,30.595122 119.495415,30.595122 L119.495415,30.595122 Z M119.495415,15.6097561 L34.0085854,15.6097561 C33.4913236,15.6097561 33.072,16.0290796 33.072,16.5463415 C33.072,17.0636033 33.4913236,17.4829268 34.0085854,17.4829268 L34.0085854,17.4829268 L119.495415,17.4829268 C120.012676,17.4829268 120.432,17.0636033 120.432,16.5463415 C120.432,16.0290796 120.012676,15.6097561 119.495415,15.6097561 L119.495415,15.6097561 Z" id="Combined-Shape" fill="#FFFFFF"></path>
                            <path d="M156,88.0390244 C156,92.5739837 156,97.1089431 156,101.643902 C156,105.509896 152.865993,108.643902 149,108.643902 L7,108.643902 C3.13400675,108.643902 4.73447626e-16,105.509896 0,101.643902 L0,88.0390244 L0,88.0390244 L156,88.0390244 Z" id="Rectangle" fill="#FFFFFF"></path>
                            <path d="M31.824,109.892683 C31.824,114.595122 31.824,119.297561 31.824,124 C31.824,126.209139 30.033139,128 27.824,128 L13.36,128 C11.150861,128 9.36,126.209139 9.36,124 L9.36,109.892683 L9.36,109.892683 L31.824,109.892683 Z" id="Rectangle" fill="#FFFFFF"></path>
                            <path d="M10.296,28.097561 C15.9823238,28.097561 20.592,32.7072372 20.592,38.393561 L20.592,86.7902439 L20.592,86.7902439 L0,86.7902439 L0,38.393561 C-6.96373822e-16,32.7072372 4.60967622,28.097561 10.296,28.097561 Z" id="Rectangle" fill="#FFFFFF"></path>
                        </g>
                    </g>
                </g>
            </g>
        </g>
    </g>
</svg>