<?xml version="1.0" encoding="UTF-8"?>
<svg width="165px" height="165px" viewBox="0 0 165 165" version="1.1" xmlns="http://www.w3.org/2000/svg" xmlns:xlink="http://www.w3.org/1999/xlink">
    <!-- Generator: Sketch 63.1 (92452) - https://sketch.com -->
    <title>Bricks</title>
    <desc>Created with Sketch.</desc>
    <defs>
        <circle id="path-1" cx="82.5" cy="82.5" r="82.5"></circle>
    </defs>
    <g id="Page-1" stroke="none" stroke-width="1" fill="none" fill-rule="evenodd">
        <g id="Home/New" transform="translate(-255.000000, -3676.000000)">
            <g id="Bricks" transform="translate(255.000000, 3676.000000)">
                <mask id="mask-2" fill="white">
                    <use xlink:href="#path-1"></use>
                </mask>
                <use id="Mask" fill="#69AFE3" xlink:href="#path-1"></use>
                <g id="File" opacity="0.2" mask="url(#mask-2)">
                    <g transform="translate(54.000000, 34.000000)" id="Group-3">
                        <g>
                            <g id="Group-2">
                                <path d="M163,0 L163,245.899441 L0,245.899441 L0,0 L163,0 Z M154.2287,186.620112 L8.77130045,186.620112 L8.77130045,223.212291 L154.2287,223.212291 L154.2287,186.620112 Z M154.2287,142.709497 L8.77130045,142.709497 L8.77130045,179.301676 L154.2287,179.301676 L154.2287,142.709497 Z M154.2287,98.7988827 L8.77130045,98.7988827 L8.77130045,135.391061 L154.2287,135.391061 L154.2287,98.7988827 Z M154.2287,54.8882682 L8.77130045,54.8882682 L8.77130045,91.4804469 L154.2287,91.4804469 L154.2287,54.8882682 Z M154.2287,10.9776536 L8.77130045,10.9776536 L8.77130045,47.5698324 L154.2287,47.5698324 L154.2287,10.9776536 Z" id="Combined-Shape" fill="#FFFFFF"></path>
                                <path d="M149.843049,103.189944 L149.843049,130.268156 L13.1569507,130.268156 L13.1569507,103.189944 L149.843049,103.189944 Z M103.44843,128.072626 C105.657569,128.072626 107.44843,126.281765 107.44843,124.072626 L107.44843,124.072626 L107.44843,118.167598 C107.44843,117.93312 107.428255,117.703354 107.389546,117.479942 C107.428251,117.236109 107.44843,116.984939 107.44843,116.72905 C107.44843,114.101841 105.321281,111.972067 102.697309,111.972067 C100.073338,111.972067 97.9461883,114.101841 97.9461883,116.72905 C97.9461883,116.985475 97.9664525,117.237161 98.0054648,117.48259 C97.9662432,117.704728 97.9461883,117.933821 97.9461883,118.167598 L97.9461883,118.167598 L97.9459507,120.022944 L65.0529507,120.022944 L65.0538117,118.167598 C65.0538117,117.933821 65.0337568,117.704728 64.9952738,117.481946 C65.0335475,117.237161 65.0538117,116.985475 65.0538117,116.72905 C65.0538117,114.101841 62.9266623,111.972067 60.3026906,111.972067 C57.6787189,111.972067 55.5515695,114.101841 55.5515695,116.72905 C55.5515695,116.984905 55.5717437,117.236042 55.6105862,117.480953 C55.5717448,117.703354 55.5515695,117.93312 55.5515695,118.167598 L55.5515695,118.167598 L55.5515695,124.072626 C55.5515695,126.281765 57.3424305,128.072626 59.5515695,128.072626 L59.5515695,128.072626 Z" id="Combined-Shape" fill="#FFFFFF"></path>
                                <polyline id="Path-2" stroke="#FFFFFF" stroke-width="5" points="60.3026906 116.72905 60.3026906 124.047486 102.697309 124.047486 102.697309 116.72905"></polyline>
                                <path d="M149.843049,59.2793296 L149.843049,86.3575419 L13.1569507,86.3575419 L13.1569507,59.2793296 L149.843049,59.2793296 Z M103.44843,84.1620112 C105.657569,84.1620112 107.44843,82.3711502 107.44843,80.1620112 L107.44843,80.1620112 L107.44843,74.2569832 C107.44843,74.0225054 107.428255,73.7927397 107.389546,73.5693275 C107.428251,73.3254941 107.44843,73.0743244 107.44843,72.8184358 C107.44843,70.1912265 105.321281,68.0614525 102.697309,68.0614525 C100.073338,68.0614525 97.9461883,70.1912265 97.9461883,72.8184358 C97.9461883,73.0748604 97.9664525,73.3265462 98.0054648,73.5719755 C97.9662432,73.7941135 97.9461883,74.0232064 97.9461883,74.2569832 L97.9461883,74.2569832 L97.9459507,76.1123296 L65.0529507,76.1123296 L65.0538117,74.2569832 C65.0538117,74.0232064 65.0337568,73.7941135 64.9952738,73.5713313 C65.0335475,73.3265462 65.0538117,73.0748604 65.0538117,72.8184358 C65.0538117,70.1912265 62.9266623,68.0614525 60.3026906,68.0614525 C57.6787189,68.0614525 55.5515695,70.1912265 55.5515695,72.8184358 C55.5515695,73.0742904 55.5717437,73.3254274 55.6105862,73.5703389 C55.5717448,73.7927397 55.5515695,74.0225054 55.5515695,74.2569832 L55.5515695,74.2569832 L55.5515695,80.1620112 C55.5515695,82.3711502 57.3424305,84.1620112 59.5515695,84.1620112 L59.5515695,84.1620112 Z" id="Combined-Shape" fill="#FFFFFF"></path>
                                <polyline id="Path-2" stroke="#FFFFFF" stroke-width="5" points="60.3026906 72.8184358 60.3026906 80.1368715 102.697309 80.1368715 102.697309 72.8184358"></polyline>
                                <path d="M149.843049,15.3687151 L149.843049,42.4469274 L13.1569507,42.4469274 L13.1569507,15.3687151 L149.843049,15.3687151 Z M103.44843,40.2513966 C105.657569,40.2513966 107.44843,38.4605356 107.44843,36.2513966 L107.44843,36.2513966 L107.44843,30.3463687 C107.44843,30.1118908 107.428255,29.8821252 107.389546,29.6587129 C107.428251,29.4148796 107.44843,29.1637099 107.44843,28.9078212 C107.44843,26.2806119 105.321281,24.150838 102.697309,24.150838 C100.073338,24.150838 97.9461883,26.2806119 97.9461883,28.9078212 C97.9461883,29.1642458 97.9664525,29.4159317 98.0054648,29.6613609 C97.9662432,29.883499 97.9461883,30.1125918 97.9461883,30.3463687 L97.9461883,30.3463687 L97.9459507,32.2017151 L65.0529507,32.2017151 L65.0538117,30.3463687 C65.0538117,30.1125918 65.0337568,29.883499 64.9952738,29.6607168 C65.0335475,29.4159317 65.0538117,29.1642458 65.0538117,28.9078212 C65.0538117,26.2806119 62.9266623,24.150838 60.3026906,24.150838 C57.6787189,24.150838 55.5515695,26.2806119 55.5515695,28.9078212 C55.5515695,29.1636759 55.5717437,29.4148128 55.6105862,29.6597244 C55.5717448,29.8821252 55.5515695,30.1118908 55.5515695,30.3463687 L55.5515695,30.3463687 L55.5515695,36.2513966 C55.5515695,38.4605356 57.3424305,40.2513966 59.5515695,40.2513966 L59.5515695,40.2513966 Z" id="Combined-Shape" fill="#FFFFFF"></path>
                                <polyline id="Path-2" stroke="#FFFFFF" stroke-width="5" points="60.3026906 28.9078212 60.3026906 36.226257 102.697309 36.226257 102.697309 28.9078212"></polyline>
                            </g>
                            <g id="Group-Copy-3" transform="translate(13.156951, 103.189944)"></g>
                            <g id="Group-Copy-2" transform="translate(13.156951, 59.279330)"></g>
                            <g id="Group-Copy-4" transform="translate(13.156951, 15.368715)"></g>
                        </g>
                    </g>
                </g>
            </g>
        </g>
    </g>
</svg>