<?xml version="1.0" encoding="UTF-8"?>
<svg width="165px" height="165px" viewBox="0 0 165 165" version="1.1" xmlns="http://www.w3.org/2000/svg" xmlns:xlink="http://www.w3.org/1999/xlink">
    <!-- Generator: Sketch 63.1 (92452) - https://sketch.com -->
    <title>Bricks</title>
    <desc>Created with Sketch.</desc>
    <defs>
        <circle id="path-1" cx="82.5" cy="82.5" r="82.5"></circle>
    </defs>
    <g id="Page-1" stroke="none" stroke-width="1" fill="none" fill-rule="evenodd">
        <g id="Home/New" transform="translate(-624.000000, -3472.000000)">
            <g id="Bricks" transform="translate(624.000000, 3472.000000)">
                <mask id="mask-2" fill="white">
                    <use xlink:href="#path-1"></use>
                </mask>
                <use id="Mask" fill="#69AFE3" xlink:href="#path-1"></use>
                <g id="Office-Chair" opacity="0.2" mask="url(#mask-2)">
                    <g transform="translate(55.000000, 20.000000)" id="Group">
                        <g>
                            <path d="M0,97.0462633 C6.52610402,97.0462633 9.78915603,97.0462633 9.78915603,97.0462633 C9.78915603,97.0462633 9.78915603,118.318126 9.78915603,120.708924 C9.78915603,123.099722 11.0096222,124.90539 12.9702345,126.017571 C14.2773093,126.759025 15.7089998,127.138998 17.2653061,127.157491 L17.2653061,131.551601 C13.4735973,131.281141 10.9815473,130.651368 9.78915603,129.662281 C8.00056916,128.178652 5.7098113,125.474484 5.7098113,121.874417 C5.7098113,119.474372 5.7098113,112.824549 5.7098113,101.924948 L0,101.924948 L0,97.0462633 Z" id="Path" fill="#FFFFFF"></path>
                            <rect id="Rectangle" fill="#FFFFFF" x="64.0255102" y="108.548043" width="14.3877551" height="9.34519573"></rect>
                            <rect id="Rectangle" fill="#FFFFFF" x="61.1479592" y="137.302491" width="19.4234694" height="15.8149466"></rect>
                            <path d="M27.434604,120.768683 L114.586667,120.768683 C116.225511,120.768683 117.698563,121.768364 118.303849,123.291334 L120.8384,129.668558 C121.654317,131.721501 120.65151,134.047172 118.598567,134.863089 C118.128433,135.049938 117.627122,135.145907 117.121218,135.145907 L25.5200774,135.145907 C23.3109384,135.145907 21.5200774,133.355046 21.5200774,131.145907 C21.5200774,130.756347 21.5769848,130.368876 21.6889971,129.995767 L23.6035237,123.618543 C24.1113521,121.926983 25.6684604,120.768683 27.434604,120.768683 Z" id="Rectangle" fill="#FFFFFF"></path>
                            <path d="M102.997078,0 C106.158739,1.19556905e-15 108.777898,2.45342063 108.984281,5.60833891 L114.936746,96.6018513 C115.032396,98.0638378 114.058047,99.3810545 112.632092,99.7175148 C93.7754984,104.166811 79.7567965,106.391459 70.5759862,106.391459 C61.3810448,106.391459 46.8445486,104.159957 26.9664975,99.696954 C25.5233129,99.3729274 24.531656,98.0453825 24.6303893,96.5695686 L30.7163749,5.59948953 C30.9271932,2.44828961 33.5447486,-3.08018406e-16 36.7029926,0 L102.997078,0 Z M47.4795918,74.7615658 C44.6984436,74.7615658 42.4438776,77.0144817 42.4438776,79.7935943 C42.4438776,82.5727069 44.6984436,84.8256228 47.4795918,84.8256228 C50.26074,84.8256228 52.5153061,82.5727069 52.5153061,79.7935943 C52.5153061,77.0144817 50.26074,74.7615658 47.4795918,74.7615658 Z M92.8010204,74.7615658 C90.0198722,74.7615658 87.7653061,77.0144817 87.7653061,79.7935943 C87.7653061,82.5727069 90.0198722,84.8256228 92.8010204,84.8256228 C95.5821686,84.8256228 97.8367347,82.5727069 97.8367347,79.7935943 C97.8367347,77.0144817 95.5821686,74.7615658 92.8010204,74.7615658 Z M51.0765306,43.8505338 C48.2953824,43.8505338 46.0408163,46.1034497 46.0408163,48.8825623 C46.0408163,51.6616749 48.2953824,53.9145907 51.0765306,53.9145907 C53.8576788,53.9145907 56.1122449,51.6616749 56.1122449,48.8825623 C56.1122449,46.1034497 53.8576788,43.8505338 51.0765306,43.8505338 Z M89.9234694,43.8505338 C87.1423212,43.8505338 84.8877551,46.1034497 84.8877551,48.8825623 C84.8877551,51.6616749 87.1423212,53.9145907 89.9234694,53.9145907 C92.7046176,53.9145907 94.9591837,51.6616749 94.9591837,48.8825623 C94.9591837,46.1034497 92.7046176,43.8505338 89.9234694,43.8505338 Z M55.3928571,12.9395018 C52.6117089,12.9395018 50.3571429,15.1924177 50.3571429,17.9715302 C50.3571429,20.7506428 52.6117089,23.0035587 55.3928571,23.0035587 C58.1740053,23.0035587 60.4285714,20.7506428 60.4285714,17.9715302 C60.4285714,15.1924177 58.1740053,12.9395018 55.3928571,12.9395018 Z M84.8877551,12.9395018 C82.1066069,12.9395018 79.8520408,15.1924177 79.8520408,17.9715302 C79.8520408,20.7506428 82.1066069,23.0035587 84.8877551,23.0035587 C87.6689033,23.0035587 89.9234694,20.7506428 89.9234694,17.9715302 C89.9234694,15.1924177 87.6689033,12.9395018 84.8877551,12.9395018 Z" id="Combined-Shape" fill="#FFFFFF"></path>
                        </g>
                    </g>
                </g>
            </g>
        </g>
    </g>
</svg>