<?xml version="1.0" encoding="UTF-8"?>
<svg width="165px" height="165px" viewBox="0 0 165 165" version="1.1" xmlns="http://www.w3.org/2000/svg" xmlns:xlink="http://www.w3.org/1999/xlink">
    <!-- Generator: Sketch 63.1 (92452) - https://sketch.com -->
    <title>Bricks</title>
    <desc>Created with Sketch.</desc>
    <defs>
        <circle id="path-1" cx="82.5" cy="82.5" r="82.5"></circle>
    </defs>
    <g id="Page-1" stroke="none" stroke-width="1" fill="none" fill-rule="evenodd">
        <g id="Home/New" transform="translate(-624.000000, -3676.000000)">
            <g id="Bricks" transform="translate(624.000000, 3676.000000)">
                <mask id="mask-2" fill="white">
                    <use xlink:href="#path-1"></use>
                </mask>
                <use id="Mask" fill="#69AFE3" xlink:href="#path-1"></use>
                <g id="Mannequin" opacity="0.2" mask="url(#mask-2)">
                    <g transform="translate(-23.000000, 0.000000)" id="Group">
                        <g>
                            <path d="M16.466697,231.122677 C10.6568029,222.799637 7.04229417,212.113971 5.62317071,199.065679 C3.59376372,180.406065 8.74382089,168.331225 21.9706947,130.150042 C27.8536867,113.16798 17.0616465,99.2106924 10.1160404,87.0281121 C7.27500622,82.0449434 10.1160404,73.6515985 10.1160404,62.5003058 C10.1160404,58.3914875 2.25779738,56.6821081 1.16390997,50.410563 C0.0312017432,43.9164478 -1.42326215,30.0266188 3.03599859,27.0212753 C6.00883908,25.0177129 22.9968396,23.8619223 54,23.5539033 L54.9258903,23.5633982 C85.3415189,23.8851229 102.020889,25.0377485 104.964001,27.0212753 C109.423262,30.0266188 107.968798,43.9164478 106.83609,50.410563 C105.742203,56.6821081 97.8839596,58.3914875 97.8839596,62.5003058 C97.8839596,73.6515985 100.724994,82.0449434 97.8839596,87.0281121 C90.9383535,99.2106924 80.1463133,113.16798 86.0293053,130.150042 C99.2561791,168.331225 104.406236,180.406065 102.376829,199.065679 C100.957706,212.113971 97.3431971,222.799637 91.533303,231.122677 L91.533303,231.122677 L16.466697,231.122677 Z" id="Combined-Shape" fill="#FFFFFF"></path>
                            <path d="M42.1167371,0 L66.243827,0 C67.0729877,7.34337171 68.5764089,12.6208607 70.7540906,15.8324669 C72.9317722,19.0440731 78.4899325,22.8446511 87.4285714,27.2342007 L19.1020408,27.2342007 C28.8760379,23.3915714 34.9734973,19.711274 37.394419,16.1933086 C39.8153407,12.6753431 41.3894467,7.27757363 42.1167371,0 Z" id="Rectangle" fill="#FFFFFF"></path>
                        </g>
                    </g>
                </g>
            </g>
        </g>
    </g>
</svg>